<svg xmlns="http://www.w3.org/2000/svg" viewBox="0 0 1200 630" width="1200" height="630"><rect width="1200" height="630" fill="#F7F5F0"/><rect x="0" y="0" width="1200" height="8" fill="#F8605A"/><g transform="translate(140,300)"><line x1="-70" y1="0" x2="150" y2="0" stroke="#303030" stroke-width="10" stroke-linecap="round"/><line x1="0" y1="-70" x2="0" y2="70" stroke="#303030" stroke-width="10" stroke-linecap="round"/><path d="M70.00,0.00 L69.55,0.02 L68.22,0.16 L66.04,0.52 L63.09,1.21 L59.44,2.32 L55.20,3.92 L50.50,6.06 L45.47,8.75 L40.24,12.00 L34.95,15.79 L29.75,20.06 L24.75,24.75 L20.06,29.75 L15.79,34.95 L12.00,40.24 L8.75,45.47 L6.06,50.50 L3.92,55.20 L2.32,59.44 L1.21,63.09 L0.52,66.04 L0.16,68.22 L0.02,69.55 L0.00,70.00 L-0.02,69.55 L-0.16,68.22 L-0.52,66.04 L-1.21,63.09 L-2.32,59.44 L-3.92,55.20 L-6.06,50.50 L-8.75,45.47 L-12.00,40.24 L-15.79,34.95 L-20.06,29.75 L-24.75,24.75 L-29.75,20.06 L-34.95,15.79 L-40.24,12.00 L-45.47,8.75 L-50.50,6.06 L-55.20,3.92 L-59.44,2.32 L-63.09,1.21 L-66.04,0.52 L-68.22,0.16 L-69.55,0.02 L-70.00,0.00 L-69.55,-0.02 L-68.22,-0.16 L-66.04,-0.52 L-63.09,-1.21 L-59.44,-2.32 L-55.20,-3.92 L-50.50,-6.06 L-45.47,-8.75 L-40.24,-12.00 L-34.95,-15.79 L-29.75,-20.06 L-24.75,-24.75 L-20.06,-29.75 L-15.79,-34.95 L-12.00,-40.24 L-8.75,-45.47 L-6.06,-50.50 L-3.92,-55.20 L-2.32,-59.44 L-1.21,-63.09 L-0.52,-66.04 L-0.16,-68.22 L-0.02,-69.55 L-0.00,-70.00 L0.02,-69.55 L0.16,-68.22 L0.52,-66.04 L1.21,-63.09 L2.32,-59.44 L3.92,-55.20 L6.06,-50.50 L8.75,-45.47 L12.00,-40.24 L15.79,-34.95 L20.06,-29.75 L24.75,-24.75 L29.75,-20.06 L34.95,-15.79 L40.24,-12.00 L45.47,-8.75 L50.50,-6.06 L55.20,-3.92 L59.44,-2.32 L63.09,-1.21 L66.04,-0.52 L68.22,-0.16 L69.55,-0.02 L70.00,-0.00 Z" fill="#F8605A"/></g><text x="140" y="470" font-family="IBM Plex Mono, monospace" font-size="72" font-weight="500" fill="#303030" letter-spacing="4">SIGIL SARL</text><text x="144" y="530" font-family="IBM Plex Sans, sans-serif" font-size="30" fill="#6B7280">Sovereign governance infrastructure · Buea, Cameroon</text></svg>